<svg width="25" height="26" viewBox="0 0 25 26" fill="none" xmlns="http://www.w3.org/2000/svg">
<path d="M22.031 7.64292H8.93578M6.55483 7.64292H2.9834M22.031 19.5477H8.93578M6.55483 19.5477H2.9834M16.0786 13.5953H2.9834M22.031 13.5953H18.4596M7.7453 5.26196C8.06104 5.26196 8.36384 5.38739 8.5871 5.61065C8.81035 5.8339 8.93578 6.13671 8.93578 6.45244V8.83339C8.93578 9.14913 8.81035 9.45193 8.5871 9.67518C8.36384 9.89844 8.06104 10.0239 7.7453 10.0239C7.42957 10.0239 7.12677 9.89844 6.90351 9.67518C6.68025 9.45193 6.55483 9.14913 6.55483 8.83339V6.45244C6.55483 6.13671 6.68025 5.8339 6.90351 5.61065C7.12677 5.38739 7.42957 5.26196 7.7453 5.26196V5.26196ZM7.7453 17.1667C8.06104 17.1667 8.36384 17.2921 8.5871 17.5154C8.81035 17.7387 8.93578 18.0415 8.93578 18.3572V20.7382C8.93578 21.0539 8.81035 21.3567 8.5871 21.5799C8.36384 21.8032 8.06104 21.9286 7.7453 21.9286C7.42957 21.9286 7.12677 21.8032 6.90351 21.5799C6.68025 21.3567 6.55483 21.0539 6.55483 20.7382V18.3572C6.55483 18.0415 6.68025 17.7387 6.90351 17.5154C7.12677 17.2921 7.42957 17.1667 7.7453 17.1667ZM17.2691 11.2143C17.5848 11.2143 17.8877 11.3398 18.1109 11.563C18.3342 11.7863 18.4596 12.0891 18.4596 12.4048V14.7858C18.4596 15.1015 18.3342 15.4043 18.1109 15.6276C17.8877 15.8508 17.5848 15.9762 17.2691 15.9762C16.9534 15.9762 16.6506 15.8508 16.4273 15.6276C16.2041 15.4043 16.0786 15.1015 16.0786 14.7858V12.4048C16.0786 12.0891 16.2041 11.7863 16.4273 11.563C16.6506 11.3398 16.9534 11.2143 17.2691 11.2143V11.2143Z" stroke="#3A3A3A" stroke-linecap="round" stroke-linejoin="round"/>
</svg>
