<svg width="69" height="11" viewBox="0 0 69 11" fill="none" xmlns="http://www.w3.org/2000/svg">
<path d="M5.46187 8.78949L8.10724 10.3241C8.5917 10.6054 9.18452 10.1896 9.05703 9.6638L8.35585 6.77798L10.6953 4.83371C11.1223 4.4791 10.8929 3.80656 10.3319 3.76376L7.25308 3.51308L6.04831 0.786222C5.83158 0.290986 5.09215 0.290986 4.87542 0.786222L3.67066 3.50697L0.591829 3.75764C0.0308824 3.80044 -0.198596 4.47299 0.228489 4.8276L2.56789 6.77186L1.86671 9.65769C1.73922 10.1835 2.33204 10.5992 2.81649 10.318L5.46187 8.78949Z" fill="#FF9900"/>
<path d="M20.371 8.78949L23.0164 10.3241C23.5009 10.6054 24.0937 10.1896 23.9662 9.6638L23.265 6.77798L25.6044 4.83371C26.0315 4.4791 25.802 3.80656 25.2411 3.76376L22.1623 3.51308L20.9575 0.786222C20.7408 0.290986 20.0013 0.290986 19.7846 0.786222L18.5798 3.50697L15.501 3.75764C14.9401 3.80044 14.7106 4.47299 15.1377 4.8276L17.4771 6.77186L16.7759 9.65769C16.6484 10.1835 17.2412 10.5992 17.7257 10.318L20.371 8.78949Z" fill="#FF9900"/>
<path d="M35.28 8.78949L37.9254 10.3241C38.4098 10.6054 39.0026 10.1896 38.8751 9.6638L38.174 6.77798L40.5134 4.83371C40.9405 4.4791 40.711 3.80656 40.15 3.76376L37.0712 3.51308L35.8664 0.786222C35.6497 0.290986 34.9103 0.290986 34.6935 0.786222L33.4888 3.50697L30.4099 3.75764C29.849 3.80044 29.6195 4.47299 30.0466 4.8276L32.386 6.77186L31.6848 9.65769C31.5573 10.1835 32.1502 10.5992 32.6346 10.318L35.28 8.78949Z" fill="#FF9900"/>
<path d="M49.7346 8.78949L52.1595 10.3241C52.6036 10.6054 53.147 10.1896 53.0302 9.6638L52.3874 6.77798L54.5319 4.83371C54.9234 4.4791 54.713 3.80656 54.1988 3.76376L51.3766 3.51308L50.2722 0.786222C50.0735 0.290986 49.3957 0.290986 49.197 0.786222L48.0927 3.50697L45.2704 3.75764C44.7562 3.80044 44.5459 4.47299 44.9374 4.8276L47.0818 6.77186L46.4391 9.65769C46.3222 10.1835 46.8656 10.5992 47.3097 10.318L49.7346 8.78949Z" fill="#FF9900"/>
<path d="M63.7346 8.78949L66.1595 10.3241C66.6036 10.6054 67.147 10.1896 67.0302 9.6638L66.3874 6.77798L68.5319 4.83371C68.9234 4.4791 68.713 3.80656 68.1988 3.76376L65.3766 3.51308L64.2722 0.786222C64.0735 0.290986 63.3957 0.290986 63.197 0.786222L62.0927 3.50697L59.2704 3.75764C58.7562 3.80044 58.5459 4.47299 58.9374 4.8276L61.0818 6.77186L60.4391 9.65769C60.3222 10.1835 60.8656 10.5992 61.3097 10.318L63.7346 8.78949Z" fill="#F1F1F1"/>
</svg>
